ffmpeg started on 2025-05-13 at 09:55:06
Report written to "D:\Convert\FFMetrics\reports\psnr_report-6.txt"
Log level: 32
Command line:
ffmpeg -hide_banner -nostdin -i "G:\\\xc0\xed\xe8\xec\xe5\\\xce\xed\xe3\xee\xe8\xed\xe3\xe8\\!_35_\xcb\xe5\xf2\xee_2024\\DreamCast-1\\\xd1\xeb\xe8\xf8\xea\xee\xec \xec\xed\xee\xe3\xee \xef\xf0\xee\xe8\xe3\xf0\xe0\xe2\xf8\xe8\xf5 \xe3\xe5\xf0\xee\xe8\xed\xfc!\\[DC] Make Heroine ga Oosugiru - 10_Telegram_HEVC.mkv" -i "G:\\\xc0\xed\xe8\xec\xe5\\\xce\xed\xe3\xee\xe8\xed\xe3\xe8\\!_35_\xcb\xe5\xf2\xee_2024\\DreamCast-1\\\xd1\xeb\xe8\xf8\xea\xee\xec \xec\xed\xee\xe3\xee \xef\xf0\xee\xe8\xe3\xf0\xe0\xe2\xf8\xe8\xf5 \xe3\xe5\xf0\xee\xe8\xed\xfc!\\[DC] Make Heroine ga Oosugiru - 10_Telegram.mp4" -lavfi "[0:v]settb=AVTB,setpts=PTS-STARTPTS,format=pix_fmts=yuv420p10,fps=24000/1001,scale=1920:1080:flags=bicubic[main];[1:v]settb=AVTB,setpts=PTS-STARTPTS,format=pix_fmts=yuv420p,fps=24000/1001,scale=1920:1080:flags=bicubic[ref];[main][ref]psnr=eof_action=endall:stats_file='D\\:/Convert/FFMetrics/logs/psnr_logfile-6.txt'" -f null -
Input #0, matroska,webm, from 'G:\Аниме\Онгоинги\!_35_Лето_2024\DreamCast-1\Слишком много проигравших героинь!\[DC] Make Heroine ga Oosugiru - 10_Telegram_HEVC.mkv':
  Metadata:
    COMPATIBLE_BRANDS: isomiso2avc1mp41
    MAJOR_BRAND     : isom
    MINOR_VERSION   : 512
    ENCODER         : Lavf61.7.100
  Duration: 00:24:06.74, start: -0.021000, bitrate: 1087 kb/s
  Stream #0:0: Video: hevc (Main 10), yuv420p10le(tv, bt709, progressive), 1920x1080 [SAR 1:1 DAR 16:9], 23.98 fps, 23.98 tbr, 1k tbn (default)
      Metadata:
        HANDLER_NAME    : VideoHandler
        VENDOR_ID       : [0][0][0][0]
        ENCODER         : Lavc61.19.100 libx265
        BPS             : 890111
        DURATION        : 00:24:06.528708333
        NUMBER_OF_FRAMES: 34682
        NUMBER_OF_BYTES : 160946315
        _STATISTICS_WRITING_APP: mkvpropedit v66.0.0 ('Josie') 64-bit
        _STATISTICS_WRITING_DATE_UTC: 2025-05-11 11:14:35
        _STATISTICS_TAGS: BPS DURATION NUMBER_OF_FRAMES NUMBER_OF_BYTES
  Stream #0:1: Audio: aac (LC), 48000 Hz, stereo, fltp (default)
      Metadata:
        HANDLER_NAME    : SoundHandler
        VENDOR_ID       : [0][0][0][0]
        ENCODER         : Lavc61.19.100 aac
        BPS             : 193091
        DURATION        : 00:24:06.741000000
        NUMBER_OF_FRAMES: 67817
        NUMBER_OF_BYTES : 34919190
        _STATISTICS_WRITING_APP: mkvpropedit v66.0.0 ('Josie') 64-bit
        _STATISTICS_WRITING_DATE_UTC: 2025-05-11 11:14:35
        _STATISTICS_TAGS: BPS DURATION NUMBER_OF_FRAMES NUMBER_OF_BYTES
Input #1, mov,mp4,m4a,3gp,3g2,mj2, from 'G:\Аниме\Онгоинги\!_35_Лето_2024\DreamCast-1\Слишком много проигравших героинь!\[DC] Make Heroine ga Oosugiru - 10_Telegram.mp4':
  Metadata:
    major_brand     : isom
    minor_version   : 512
    compatible_brands: isomiso2avc1mp41
    encoder         : Lavf61.1.100
  Duration: 00:24:06.69, start: 0.000000, bitrate: 3657 kb/s
  Stream #1:0[0x1](und): Video: h264 (High) (avc1 / 0x31637661), yuv420p(tv, bt709, progressive), 1920x1080 [SAR 1:1 DAR 16:9], 3509 kb/s, 23.98 fps, 23.98 tbr, 24k tbn (default)
      Metadata:
        handler_name    : VideoHandler
        vendor_id       : [0][0][0][0]
        encoder         : Lavc61.3.100 h264_qsv
  Stream #1:1[0x2](und): Audio: aac (HE-AACv2) (mp4a / 0x6134706D), 48000 Hz, stereo, fltp, 144 kb/s (default)
      Metadata:
        handler_name    : SoundHandler
        vendor_id       : [0][0][0][0]
Stream mapping:
  Stream #0:0 (hevc) -> settb:default
  Stream #1:0 (h264) -> settb:default
  psnr:default -> Stream #0:0 (wrapped_avframe)
  Stream #0:1 -> #0:1 (aac (native) -> pcm_s16le (native))
Output #0, null, to 'pipe:':
  Metadata:
    COMPATIBLE_BRANDS: isomiso2avc1mp41
    MAJOR_BRAND     : isom
    MINOR_VERSION   : 512
    encoder         : Lavf61.7.100
  Stream #0:0: Video: wrapped_avframe, yuv420p10le(tv, bt709, progressive), 1920x1080 [SAR 1:1 DAR 16:9], q=2-31, 200 kb/s, 23.98 fps, 23.98 tbn
      Metadata:
        encoder         : Lavc61.19.100 wrapped_avframe
  Stream #0:1: Audio: pcm_s16le, 48000 Hz, stereo, s16, 1536 kb/s (default)
      Metadata:
        HANDLER_NAME    : SoundHandler
        VENDOR_ID       : [0][0][0][0]
        _STATISTICS_TAGS: BPS DURATION NUMBER_OF_FRAMES NUMBER_OF_BYTES
        BPS             : 193091
        DURATION        : 00:24:06.741000000
        NUMBER_OF_FRAMES: 67817
        NUMBER_OF_BYTES : 34919190
        _STATISTICS_WRITING_APP: mkvpropedit v66.0.0 ('Josie') 64-bit
        _STATISTICS_WRITING_DATE_UTC: 2025-05-11 11:14:35
        encoder         : Lavc61.19.100 pcm_s16le
frame=  172 fps=0.0 q=-0.0 size=N/A time=00:00:07.17 bitrate=N/A speed=14.2x    frame=  430 fps=418 q=-0.0 size=N/A time=00:00:17.93 bitrate=N/A speed=17.4x    frame=  684 fps=446 q=-0.0 size=N/A time=00:00:28.52 bitrate=N/A speed=18.6x    frame=  952 fps=463 q=-0.0 size=N/A time=00:00:39.70 bitrate=N/A speed=19.3x    frame= 1215 fps=471 q=-0.0 size=N/A time=00:00:50.67 bitrate=N/A speed=19.7x    frame= 1462 fps=474 q=-0.0 size=N/A time=00:01:00.97 bitrate=N/A speed=19.8x    frame= 1690 fps=468 q=-0.0 size=N/A time=00:01:10.48 bitrate=N/A speed=19.5x    frame= 1846 fps=447 q=-0.0 size=N/A time=00:01:16.99 bitrate=N/A speed=18.7x    frame= 2026 fps=436 q=-0.0 size=N/A time=00:01:24.50 bitrate=N/A speed=18.2x    frame= 2188 fps=423 q=-0.0 size=N/A time=00:01:31.25 bitrate=N/A speed=17.6x    frame= 2360 fps=415 q=-0.0 size=N/A time=00:01:38.43 bitrate=N/A speed=17.3x    frame= 2515 fps=405 q=-0.0 size=N/A time=00:01:44.89 bitrate=N/A speed=16.9x    frame= 2699 fps=402 q=-0.0 size=N/A time=00:01:52.57 bitrate=N/A speed=16.8x    frame= 2890 fps=399 q=-0.0 size=N/A time=00:02:00.53 bitrate=N/A speed=16.7x    frame= 2994 fps=387 q=-0.0 size=N/A time=00:02:04.87 bitrate=N/A speed=16.1x    frame= 3174 fps=384 q=-0.0 size=N/A time=00:02:12.38 bitrate=N/A speed=  16x    frame= 3326 fps=379 q=-0.0 size=N/A time=00:02:18.72 bitrate=N/A speed=15.8x    frame= 3494 fps=376 q=-0.0 size=N/A time=00:02:25.72 bitrate=N/A speed=15.7x    frame= 3703 fps=378 q=-0.0 size=N/A time=00:02:34.44 bitrate=N/A speed=15.8x    frame= 3907 fps=378 q=-0.0 size=N/A time=00:02:42.95 bitrate=N/A speed=15.8x    frame= 4148 fps=383 q=-0.0 size=N/A time=00:02:53.00 bitrate=N/A speed=  16x    frame= 4391 fps=387 q=-0.0 size=N/A time=00:03:03.14 bitrate=N/A speed=16.1x    frame= 4621 fps=389 q=-0.0 size=N/A time=00:03:12.73 bitrate=N/A speed=16.2x    frame= 4854 fps=392 q=-0.0 size=N/A time=00:03:22.45 bitrate=N/A speed=16.3x    frame= 5115 fps=396 q=-0.0 size=N/A time=00:03:33.33 bitrate=N/A speed=16.5x    frame= 5355 fps=399 q=-0.0 size=N/A time=00:03:43.34 bitrate=N/A speed=16.7x    frame= 5609 fps=403 q=-0.0 size=N/A time=00:03:53.94 bitrate=N/A speed=16.8x    frame= 5842 fps=404 q=-0.0 size=N/A time=00:04:03.66 bitrate=N/A speed=16.9x    frame= 6043 fps=404 q=-0.0 size=N/A time=00:04:12.04 bitrate=N/A speed=16.8x    frame= 6264 fps=405 q=-0.0 size=N/A time=00:04:21.26 bitrate=N/A speed=16.9x    frame= 6541 fps=409 q=-0.0 size=N/A time=00:04:32.81 bitrate=N/A speed=17.1x    frame= 6808 fps=413 q=-0.0 size=N/A time=00:04:43.95 bitrate=N/A speed=17.2x    frame= 7064 fps=415 q=-0.0 size=N/A time=00:04:54.62 bitrate=N/A speed=17.3x    frame= 7316 fps=417 q=-0.0 size=N/A time=00:05:05.13 bitrate=N/A speed=17.4x    frame= 7549 fps=418 q=-0.0 size=N/A time=00:05:14.85 bitrate=N/A speed=17.4x    frame= 7773 fps=418 q=-0.0 size=N/A time=00:05:24.19 bitrate=N/A speed=17.5x    frame= 8004 fps=419 q=-0.0 size=N/A time=00:05:33.83 bitrate=N/A speed=17.5x    frame= 8259 fps=421 q=-0.0 size=N/A time=00:05:44.46 bitrate=N/A speed=17.6x    frame= 8512 fps=423 q=-0.0 size=N/A time=00:05:55.02 bitrate=N/A speed=17.6x    frame= 8760 fps=424 q=-0.0 size=N/A time=00:06:05.36 bitrate=N/A speed=17.7x    frame= 9002 fps=426 q=-0.0 size=N/A time=00:06:15.45 bitrate=N/A speed=17.8x    frame= 9246 fps=427 q=-0.0 size=N/A time=00:06:25.63 bitrate=N/A speed=17.8x    frame= 9511 fps=429 q=-0.0 size=N/A time=00:06:36.68 bitrate=N/A speed=17.9x    frame= 9763 fps=430 q=-0.0 size=N/A time=00:06:47.19 bitrate=N/A speed=17.9x    frame=10018 fps=432 q=-0.0 size=N/A time=00:06:57.83 bitrate=N/A speed=  18x    frame=10266 fps=433 q=-0.0 size=N/A time=00:07:08.17 bitrate=N/A speed=  18x    frame=10482 fps=432 q=-0.0 size=N/A time=00:07:17.18 bitrate=N/A speed=  18x    frame=10726 fps=433 q=-0.0 size=N/A time=00:07:27.36 bitrate=N/A speed=18.1x    frame=10960 fps=434 q=-0.0 size=N/A time=00:07:37.12 bitrate=N/A speed=18.1x    frame=11168 fps=433 q=-0.0 size=N/A time=00:07:45.79 bitrate=N/A speed=18.1x    frame=11416 fps=434 q=-0.0 size=N/A time=00:07:56.14 bitrate=N/A speed=18.1x    frame=11675 fps=435 q=-0.0 size=N/A time=00:08:06.94 bitrate=N/A speed=18.2x    frame=11927 fps=436 q=-0.0 size=N/A time=00:08:17.45 bitrate=N/A speed=18.2x    frame=12198 fps=438 q=-0.0 size=N/A time=00:08:28.75 bitrate=N/A speed=18.3x    frame=12461 fps=439 q=-0.0 size=N/A time=00:08:39.72 bitrate=N/A speed=18.3x    frame=12721 fps=440 q=-0.0 size=N/A time=00:08:50.57 bitrate=N/A speed=18.4x    frame=12978 fps=441 q=-0.0 size=N/A time=00:09:01.29 bitrate=N/A speed=18.4x    frame=13238 fps=442 q=-0.0 size=N/A time=00:09:12.13 bitrate=N/A speed=18.4x    frame=13511 fps=443 q=-0.0 size=N/A time=00:09:23.52 bitrate=N/A speed=18.5x    frame=13764 fps=444 q=-0.0 size=N/A time=00:09:34.07 bitrate=N/A speed=18.5x    frame=14050 fps=446 q=-0.0 size=N/A time=00:09:46.00 bitrate=N/A speed=18.6x    frame=14281 fps=446 q=-0.0 size=N/A time=00:09:55.63 bitrate=N/A speed=18.6x    frame=14524 fps=447 q=-0.0 size=N/A time=00:10:05.77 bitrate=N/A speed=18.6x    frame=14803 fps=448 q=-0.0 size=N/A time=00:10:17.40 bitrate=N/A speed=18.7x    frame=15039 fps=448 q=-0.0 size=N/A time=00:10:27.25 bitrate=N/A speed=18.7x    frame=15276 fps=448 q=-0.0 size=N/A time=00:10:37.13 bitrate=N/A speed=18.7x    frame=15520 fps=449 q=-0.0 size=N/A time=00:10:47.31 bitrate=N/A speed=18.7x    frame=15781 fps=450 q=-0.0 size=N/A time=00:10:58.19 bitrate=N/A speed=18.8x    frame=16035 fps=450 q=-0.0 size=N/A time=00:11:08.79 bitrate=N/A speed=18.8x    frame=16260 fps=450 q=-0.0 size=N/A time=00:11:18.17 bitrate=N/A speed=18.8x    frame=16540 fps=451 q=-0.0 size=N/A time=00:11:29.85 bitrate=N/A speed=18.8x    frame=16804 fps=452 q=-0.0 size=N/A time=00:11:40.86 bitrate=N/A speed=18.9x    frame=17060 fps=453 q=-0.0 size=N/A time=00:11:51.54 bitrate=N/A speed=18.9x    frame=17318 fps=453 q=-0.0 size=N/A time=00:12:02.30 bitrate=N/A speed=18.9x    frame=17555 fps=453 q=-0.0 size=N/A time=00:12:12.18 bitrate=N/A speed=18.9x    frame=17768 fps=453 q=-0.0 size=N/A time=00:12:21.07 bitrate=N/A speed=18.9x    frame=18006 fps=453 q=-0.0 size=N/A time=00:12:31.00 bitrate=N/A speed=18.9x    frame=18237 fps=453 q=-0.0 size=N/A time=00:12:40.63 bitrate=N/A speed=18.9x    frame=18467 fps=453 q=-0.0 size=N/A time=00:12:50.22 bitrate=N/A speed=18.9x    frame=18724 fps=453 q=-0.0 size=N/A time=00:13:00.94 bitrate=N/A speed=18.9x    frame=18994 fps=454 q=-0.0 size=N/A time=00:13:12.20 bitrate=N/A speed=  19x    frame=19193 fps=453 q=-0.0 size=N/A time=00:13:20.50 bitrate=N/A speed=18.9x    frame=19441 fps=454 q=-0.0 size=N/A time=00:13:30.85 bitrate=N/A speed=18.9x    frame=19691 fps=454 q=-0.0 size=N/A time=00:13:41.27 bitrate=N/A speed=18.9x    frame=19930 fps=454 q=-0.0 size=N/A time=00:13:51.24 bitrate=N/A speed=  19x    frame=20179 fps=455 q=-0.0 size=N/A time=00:14:01.63 bitrate=N/A speed=  19x    frame=20416 fps=455 q=-0.0 size=N/A time=00:14:11.51 bitrate=N/A speed=  19x    frame=20679 fps=455 q=-0.0 size=N/A time=00:14:22.48 bitrate=N/A speed=  19x    frame=20930 fps=456 q=-0.0 size=N/A time=00:14:32.95 bitrate=N/A speed=  19x    frame=21165 fps=456 q=-0.0 size=N/A time=00:14:42.75 bitrate=N/A speed=  19x    frame=21400 fps=456 q=-0.0 size=N/A time=00:14:52.55 bitrate=N/A speed=  19x    frame=21639 fps=456 q=-0.0 size=N/A time=00:15:02.52 bitrate=N/A speed=  19x    frame=21913 fps=457 q=-0.0 size=N/A time=00:15:13.95 bitrate=N/A speed=  19x    frame=22170 fps=457 q=-0.0 size=N/A time=00:15:24.67 bitrate=N/A speed=19.1x    frame=22432 fps=458 q=-0.0 size=N/A time=00:15:35.60 bitrate=N/A speed=19.1x    frame=22705 fps=458 q=-0.0 size=N/A time=00:15:46.98 bitrate=N/A speed=19.1x    frame=22974 fps=459 q=-0.0 size=N/A time=00:15:58.20 bitrate=N/A speed=19.1x    frame=23245 fps=460 q=-0.0 size=N/A time=00:16:09.51 bitrate=N/A speed=19.2x    frame=23507 fps=460 q=-0.0 size=N/A time=00:16:20.43 bitrate=N/A speed=19.2x    frame=23787 fps=461 q=-0.0 size=N/A time=00:16:32.11 bitrate=N/A speed=19.2x    frame=24043 fps=461 q=-0.0 size=N/A time=00:16:42.79 bitrate=N/A speed=19.2x    frame=24323 fps=462 q=-0.0 size=N/A time=00:16:54.47 bitrate=N/A speed=19.3x    frame=24600 fps=463 q=-0.0 size=N/A time=00:17:06.02 bitrate=N/A speed=19.3x    frame=24868 fps=463 q=-0.0 size=N/A time=00:17:17.20 bitrate=N/A speed=19.3x    frame=25135 fps=464 q=-0.0 size=N/A time=00:17:28.33 bitrate=N/A speed=19.3x    frame=25403 fps=464 q=-0.0 size=N/A time=00:17:39.51 bitrate=N/A speed=19.4x    frame=25672 fps=465 q=-0.0 size=N/A time=00:17:50.73 bitrate=N/A speed=19.4x    frame=25948 fps=466 q=-0.0 size=N/A time=00:18:02.24 bitrate=N/A speed=19.4x    frame=26217 fps=466 q=-0.0 size=N/A time=00:18:13.46 bitrate=N/A speed=19.4x    frame=26470 fps=466 q=-0.0 size=N/A time=00:18:24.01 bitrate=N/A speed=19.5x    frame=26740 fps=467 q=-0.0 size=N/A time=00:18:35.28 bitrate=N/A speed=19.5x    frame=27020 fps=468 q=-0.0 size=N/A time=00:18:46.95 bitrate=N/A speed=19.5x    frame=27293 fps=468 q=-0.0 size=N/A time=00:18:58.34 bitrate=N/A speed=19.5x    frame=27563 fps=469 q=-0.0 size=N/A time=00:19:09.60 bitrate=N/A speed=19.5x    frame=27838 fps=469 q=-0.0 size=N/A time=00:19:21.07 bitrate=N/A speed=19.6x    frame=28123 fps=470 q=-0.0 size=N/A time=00:19:32.96 bitrate=N/A speed=19.6x    frame=28399 fps=470 q=-0.0 size=N/A time=00:19:44.47 bitrate=N/A speed=19.6x    frame=28666 fps=471 q=-0.0 size=N/A time=00:19:55.61 bitrate=N/A speed=19.6x    frame=28939 fps=471 q=-0.0 size=N/A time=00:20:06.99 bitrate=N/A speed=19.7x    frame=29212 fps=472 q=-0.0 size=N/A time=00:20:18.38 bitrate=N/A speed=19.7x    frame=29487 fps=472 q=-0.0 size=N/A time=00:20:29.85 bitrate=N/A speed=19.7x    frame=29766 fps=473 q=-0.0 size=N/A time=00:20:41.49 bitrate=N/A speed=19.7x    frame=30041 fps=473 q=-0.0 size=N/A time=00:20:52.96 bitrate=N/A speed=19.7x    frame=30312 fps=474 q=-0.0 size=N/A time=00:21:04.26 bitrate=N/A speed=19.8x    frame=30580 fps=474 q=-0.0 size=N/A time=00:21:15.44 bitrate=N/A speed=19.8x    frame=30856 fps=474 q=-0.0 size=N/A time=00:21:26.95 bitrate=N/A speed=19.8x    frame=31131 fps=475 q=-0.0 size=N/A time=00:21:38.42 bitrate=N/A speed=19.8x    frame=31421 fps=476 q=-0.0 size=N/A time=00:21:50.51 bitrate=N/A speed=19.8x    frame=31698 fps=476 q=-0.0 size=N/A time=00:22:02.07 bitrate=N/A speed=19.9x    frame=31991 fps=477 q=-0.0 size=N/A time=00:22:14.29 bitrate=N/A speed=19.9x    frame=32265 fps=477 q=-0.0 size=N/A time=00:22:25.71 bitrate=N/A speed=19.9x    frame=32501 fps=477 q=-0.0 size=N/A time=00:22:35.56 bitrate=N/A speed=19.9x    frame=32728 fps=477 q=-0.0 size=N/A time=00:22:45.03 bitrate=N/A speed=19.9x    frame=32928 fps=476 q=-0.0 size=N/A time=00:22:53.37 bitrate=N/A speed=19.9x    frame=33133 fps=476 q=-0.0 size=N/A time=00:23:01.92 bitrate=N/A speed=19.8x    frame=33307 fps=475 q=-0.0 size=N/A time=00:23:09.17 bitrate=N/A speed=19.8x    frame=33461 fps=473 q=-0.0 size=N/A time=00:23:15.60 bitrate=N/A speed=19.7x    frame=33615 fps=472 q=-0.0 size=N/A time=00:23:22.02 bitrate=N/A speed=19.7x    frame=33812 fps=471 q=-0.0 size=N/A time=00:23:30.24 bitrate=N/A speed=19.7x    frame=34025 fps=471 q=-0.0 size=N/A time=00:23:39.12 bitrate=N/A speed=19.6x    frame=34223 fps=470 q=-0.0 size=N/A time=00:23:47.38 bitrate=N/A speed=19.6x    frame=34379 fps=469 q=-0.0 size=N/A time=00:23:53.89 bitrate=N/A speed=19.6x    frame=34596 fps=469 q=-0.0 size=N/A time=00:24:02.94 bitrate=N/A speed=19.6x    [Parsed_psnr_10 @ 000001f5dda20e80] PSNR y:48.032341 u:49.920327 v:50.099276 average:48.596777 min:38.450983 max:inf
[out#0/null @ 000001f5d0d3d040] video:14902KiB audio:271268KiB subtitle:0KiB other streams:0KiB global headers:0KiB muxing overhead: unknown
frame=34682 fps=469 q=-0.0 Lsize=N/A time=00:24:06.52 bitrate=N/A speed=19.6x    
